# Made in Blockbench 5.1.6
mtllib lsw_half.mtl

g frame
v 0.5 0.375 -0.4375
v 0.5 0.375 -0.5
v 0.5 -0.125 -0.4375
v 0.5 -0.125 -0.5
v 0.375 0.375 -0.4375
v 0.375 0.375 -0.5
v 0.375 -0.125 -0.4375
v 0.375 -0.125 -0.5
v -0.375 0.375 -0.4375
v -0.375 0.375 -0.5
v -0.375 -0.125 -0.4375
v -0.375 -0.125 -0.5
v -0.5 0.375 -0.4375
v -0.5 0.375 -0.5
v -0.5 -0.125 -0.4375
v -0.5 -0.125 -0.5
v 0.5 0.375 -0.4375
v 0.5 0.375 -0.5
v -0.5 0.375 -0.4375
v -0.5 0.375 -0.5
v 0.5 0.5 -0.4375
v 0.5 0.5 -0.5
v -0.5 0.5 -0.4375
v -0.5 0.5 -0.5
v 0.5 -0.25 -0.4375
v 0.5 -0.25 -0.5
v -0.5 -0.25 -0.4375
v -0.5 -0.25 -0.5
v 0.5 -0.125 -0.4375
v 0.5 -0.125 -0.5
v -0.5 -0.125 -0.4375
v -0.5 -0.125 -0.5
v 0.375 -0.125 -0.4375
v 0.375 -0.125 -0.5
v -0.375 -0.125 -0.4375
v -0.375 -0.125 -0.5
v 0.375 0.375 -0.4375
v 0.375 0.375 -0.5
v -0.375 0.375 -0.4375
v -0.375 0.375 -0.5
v 0.5 -0.25 -0.4375
v 0.5 -0.25 -0.5
v 0.5 0.5 -0.4375
v 0.5 0.5 -0.5
v -0.5 -0.25 -0.4375
v -0.5 -0.25 -0.5
v -0.5 0.5 -0.4375
v -0.5 0.5 -0.5
vt 0.125 0.5833333333333333
vt 0.125 0.9166666666666666
vt 0.0625 0.9166666666666666
vt 0.0625 0.5833333333333333
vt 0.125 0.5
vt 0.125 1
vt 0 1
vt 0 0.5
vt 0.125 0.9166666666666666
vt 0 0.9166666666666666
vt 0 0.5833333333333333
vt 0.125 0.5833333333333333
vt 0.9375 0.9166666666666666
vt 0.875 0.9166666666666666
vt 0.875 0.5833333333333333
vt 0.9375 0.5833333333333333
vt 0.125 0.5
vt 0.125 1
vt 0 1
vt 0 0.5
vt 0.125 0.9166666666666666
vt 0 0.9166666666666666
vt 0 0.5833333333333333
vt 0.125 0.5833333333333333
vt 0 0.9583333333333334
vt 1 0.9583333333333334
vt 1 1
vt 0 1
vt 0.125 0.5
vt 0.125 1
vt 0 1
vt 0 0.5
vt 0 1
vt 0 0.9166666666666666
vt 1 0.9166666666666666
vt 1 1
vt 1 0.5
vt 1 0.5416666666666667
vt 0 0.5416666666666667
vt 0 0.5
vt 0.125 0.5
vt 0.125 1
vt 0 1
vt 0 0.5
vt 0 0.5833333333333333
vt 0 0.5
vt 1 0.5
vt 1 0.5833333333333333
vt 0.875 0.5416666666666667
vt 0.875 0.5833333333333333
vt 0.125 0.5833333333333333
vt 0.125 0.5416666666666667
vt 0.875 0.9166666666666666
vt 0.875 0.9583333333333334
vt 0.125 0.9583333333333334
vt 0.125 0.9166666666666666
vt 0 0.5
vt 0.0625 0.5
vt 0.0625 1
vt 0 1
vt 0.9375 0.5
vt 1 0.5
vt 1 1
vt 0.9375 1
vn -1 0 0
vn 0 0 1
vn 0 0 -1
vn 1 0 0
vn 0 0 1
vn 0 0 -1
vn 0 1 0
vn 0 0 1
vn 0 0 -1
vn 0 -1 0
vn 0 0 1
vn 0 0 -1
vn 0 1 0
vn 0 1 0
vn 1 0 0
vn 1 0 0
usemtl m_614b8c28-a7fc-8c5d-2116-82dd2dc613de
f 7/1/1 5/2/1 6/3/1 8/4/1
f 3/5/2 1/6/2 5/7/2 7/8/2
f 6/9/3 2/10/3 4/11/3 8/12/3
f 10/13/4 9/14/4 11/15/4 12/16/4
f 11/17/5 9/18/5 13/19/5 15/20/5
f 14/21/6 10/22/6 12/23/6 16/24/6
f 23/25/7 21/26/7 22/27/7 24/28/7
f 19/29/8 17/30/8 21/31/8 23/32/8
f 22/33/9 18/34/9 20/35/9 24/36/9
f 26/37/10 25/38/10 27/39/10 28/40/10
f 27/41/11 25/42/11 29/43/11 31/44/11
f 30/45/12 26/46/12 28/47/12 32/48/12
f 33/49/13 34/50/13 36/51/13 35/52/13
f 37/53/14 38/54/14 40/55/14 39/56/14
f 41/57/15 42/58/15 44/59/15 43/60/15
f 45/61/16 46/62/16 48/63/16 47/64/16
g glass
v 0.375 0.375 -0.46875
v 0.375 -0.125 -0.46875
v -0.375 0.375 -0.46875
v -0.375 -0.125 -0.46875
vt 0.125 0.9166666666666666
vt 0.125 0.5833333333333333
vt 0.875 0.5833333333333333
vt 0.875 0.9166666666666666
vn 0 0 -1
usemtl m_614b8c28-a7fc-8c5d-2116-82dd2dc613de
f 49/65/17 50/66/17 52/67/17 51/68/17
g frame
v 0.5 0 -0.375
v 0.5 0 -0.4375
v 0.5 -0.5 -0.375
v 0.5 -0.5 -0.4375
v 0.375 0 -0.375
v 0.375 0 -0.4375
v 0.375 -0.5 -0.375
v 0.375 -0.5 -0.4375
v -0.375 0 -0.375
v -0.375 0 -0.4375
v -0.375 -0.5 -0.375
v -0.375 -0.5 -0.4375
v -0.5 0 -0.375
v -0.5 0 -0.4375
v -0.5 -0.5 -0.375
v -0.5 -0.5 -0.4375
v 0.5 0 -0.375
v 0.5 0 -0.4375
v -0.5 0 -0.375
v -0.5 0 -0.4375
v 0.5 0.125 -0.375
v 0.5 0.125 -0.4375
v -0.5 0.125 -0.375
v -0.5 0.125 -0.4375
v 0.5 -0.625 -0.375
v 0.5 -0.625 -0.4375
v -0.5 -0.625 -0.375
v -0.5 -0.625 -0.4375
v 0.5 -0.5 -0.375
v 0.5 -0.5 -0.4375
v -0.5 -0.5 -0.375
v -0.5 -0.5 -0.4375
v 0.375 -0.5 -0.375
v 0.375 -0.5 -0.4375
v -0.375 -0.5 -0.375
v -0.375 -0.5 -0.4375
v 0.375 0 -0.375
v 0.375 0 -0.4375
v -0.375 0 -0.375
v -0.375 0 -0.4375
v 0.5 -0.625 -0.375
v 0.5 -0.625 -0.4375
v 0.5 0.125 -0.375
v 0.5 0.125 -0.4375
v -0.5 -0.625 -0.375
v -0.5 -0.625 -0.4375
v -0.5 0.125 -0.375
v -0.5 0.125 -0.4375
vt 0.125 0.08333333333333337
vt 0.125 0.41666666666666663
vt 0.0625 0.41666666666666663
vt 0.0625 0.08333333333333337
vt 1 0.08333333333333337
vt 1 0.41666666666666663
vt 0.875 0.41666666666666663
vt 0.875 0.08333333333333337
vt 0.125 0.41666666666666663
vt 0 0.41666666666666663
vt 0 0.08333333333333337
vt 0.125 0.08333333333333337
vt 0.9375 0.41666666666666663
vt 0.875 0.41666666666666663
vt 0.875 0.08333333333333337
vt 0.9375 0.08333333333333337
vt 0.125 0.08333333333333337
vt 0.125 0.41666666666666663
vt 0 0.41666666666666663
vt 0 0.08333333333333337
vt 1 0.41666666666666663
vt 0.875 0.41666666666666663
vt 0.875 0.08333333333333337
vt 1 0.08333333333333337
vt 0 0.45833333333333337
vt 1 0.45833333333333337
vt 1 0.5
vt 0 0.5
vt 0 0.41666666666666663
vt 1 0.41666666666666663
vt 1 0.5
vt 0 0.5
vt 0 0.5
vt 0 0.41666666666666663
vt 1 0.41666666666666663
vt 1 0.5
vt 1 0
vt 1 0.04166666666666663
vt 0 0.04166666666666663
vt 0 0
vt 0 0
vt 1 0
vt 1 0.08333333333333337
vt 0 0.08333333333333337
vt 0 0.08333333333333337
vt 0 0
vt 1 0
vt 1 0.08333333333333337
vt 0.875 0.04166666666666663
vt 0.875 0.08333333333333337
vt 0.125 0.08333333333333337
vt 0.125 0.04166666666666663
vt 0.875 0.41666666666666663
vt 0.875 0.45833333333333337
vt 0.125 0.45833333333333337
vt 0.125 0.41666666666666663
vt 0 0
vt 0.0625 0
vt 0.0625 0.5
vt 0 0.5
vt 0.9375 0
vt 1 0
vt 1 0.5
vt 0.9375 0.5
vn -1 0 0
vn 0 0 1
vn 0 0 -1
vn 1 0 0
vn 0 0 1
vn 0 0 -1
vn 0 1 0
vn 0 0 1
vn 0 0 -1
vn 0 -1 0
vn 0 0 1
vn 0 0 -1
vn 0 1 0
vn 0 1 0
vn 1 0 0
vn 1 0 0
usemtl m_614b8c28-a7fc-8c5d-2116-82dd2dc613de
f 59/69/18 57/70/18 58/71/18 60/72/18
f 55/73/19 53/74/19 57/75/19 59/76/19
f 58/77/20 54/78/20 56/79/20 60/80/20
f 62/81/21 61/82/21 63/83/21 64/84/21
f 63/85/22 61/86/22 65/87/22 67/88/22
f 66/89/23 62/90/23 64/91/23 68/92/23
f 75/93/24 73/94/24 74/95/24 76/96/24
f 71/97/25 69/98/25 73/99/25 75/100/25
f 74/101/26 70/102/26 72/103/26 76/104/26
f 78/105/27 77/106/27 79/107/27 80/108/27
f 79/109/28 77/110/28 81/111/28 83/112/28
f 82/113/29 78/114/29 80/115/29 84/116/29
f 85/117/30 86/118/30 88/119/30 87/120/30
f 89/121/31 90/122/31 92/123/31 91/124/31
f 93/125/32 94/126/32 96/127/32 95/128/32
f 97/129/33 98/130/33 100/131/33 99/132/33
g glass
v 0.375 0 -0.40625
v 0.375 -0.5 -0.40625
v -0.375 0 -0.40625
v -0.375 -0.5 -0.40625
vt 0.125 0.41666666666666663
vt 0.125 0.08333333333333337
vt 0.875 0.08333333333333337
vt 0.875 0.41666666666666663
vn 0 0 -1
usemtl m_614b8c28-a7fc-8c5d-2116-82dd2dc613de
f 101/133/34 102/134/34 104/135/34 103/136/34
