# Made in Blockbench 5.1.6
mtllib odw_window.mtl

g glass
v 0.375 0.375 -0.4375
v 0.375 -0.375 -0.4375
v -0.375 0.375 -0.4375
v -0.375 -0.375 -0.4375
vt 0 1
vt 0 0
vt 1 0
vt 1 1
vn 0 0 -1
usemtl m_6bfe8b95-f244-5cf4-a320-e04d721c970d
f 1/1/1 2/2/1 4/3/1 3/4/1
g frame
v 0.4375 -0.375 -0.375
v 0.4375 -0.375 -0.5
v 0.4375 -0.4375 -0.375
v 0.4375 -0.4375 -0.5
v -0.4375 -0.375 -0.375
v -0.4375 -0.375 -0.5
v -0.4375 -0.4375 -0.375
v -0.4375 -0.4375 -0.5
v 0.4375 0.4375 -0.375
v 0.4375 0.4375 -0.5
v 0.4375 0.375 -0.375
v 0.4375 0.375 -0.5
v -0.4375 0.4375 -0.375
v -0.4375 0.4375 -0.5
v -0.4375 0.375 -0.375
v -0.4375 0.375 -0.5
v 0.375 0.375 -0.375
v 0.375 0.375 -0.5
v 0.4375 0.375 -0.375
v 0.4375 0.375 -0.5
v 0.375 -0.375 -0.375
v 0.375 -0.375 -0.5
v 0.4375 -0.375 -0.375
v 0.4375 -0.375 -0.5
v -0.375 0.375 -0.5
v -0.375 0.375 -0.375
v -0.4375 0.375 -0.5
v -0.4375 0.375 -0.375
v -0.375 -0.375 -0.5
v -0.375 -0.375 -0.375
v -0.4375 -0.375 -0.5
v -0.4375 -0.375 -0.375
vt 0.9375 0.1875
vt 0.0625 0.1875
vt 0.0625 0.0625
vt 0.9375 0.0625
vt 0.9375 0.0625
vt 0.9375 0.125
vt 0.0625 0.125
vt 0.0625 0.0625
vt 0.9375 0.125
vt 0.0625 0.125
vt 0.0625 0.0625
vt 0.9375 0.0625
vt 0.9375 0.875
vt 0.9375 1
vt 0.0625 1
vt 0.0625 0.875
vt 0.9375 0.875
vt 0.9375 0.9375
vt 0.0625 0.9375
vt 0.0625 0.875
vt 0.0625 0.9375
vt 0.9375 0.9375
vt 0.9375 0.875
vt 0.0625 0.875
vt 0.125 0.125
vt 0.125 0.875
vt 0 0.875
vt 0 0.125
vt 0.9375 0.875
vt 0.875 0.875
vt 0.875 0.125
vt 0.9375 0.125
vt 0.125 0.125
vt 0.125 0.875
vt 0.0625 0.875
vt 0.0625 0.125
vt 1 0.125
vt 1 0.875
vt 0.875 0.875
vt 0.875 0.125
vt 0.9375 0.875
vt 0.875 0.875
vt 0.875 0.125
vt 0.9375 0.125
vt 0.125 0.125
vt 0.125 0.875
vt 0.0625 0.875
vt 0.0625 0.125
vn 0 1 0
vn 0 0 1
vn 0 0 -1
vn 0 -1 0
vn 0 0 1
vn 0 0 -1
vn -1 0 0
vn 0 0 1
vn 0 0 -1
vn 1 0 0
vn 0 0 -1
vn 0 0 1
usemtl m_93df7d82-3de4-5e77-5e04-91d46ee81b34
f 9/5/2 5/6/2 6/7/2 10/8/2
f 7/9/3 5/10/3 9/11/3 11/12/3
f 10/13/4 6/14/4 8/15/4 12/16/4
f 16/17/5 15/18/5 19/19/5 20/20/5
f 15/21/6 13/22/6 17/23/6 19/24/6
f 18/25/7 14/26/7 16/27/7 20/28/7
f 25/29/8 21/30/8 22/31/8 26/32/8
f 23/33/9 21/34/9 25/35/9 27/36/9
f 26/37/10 22/38/10 24/39/10 28/40/10
f 33/41/11 29/42/11 30/43/11 34/44/11
f 31/45/12 29/46/12 33/47/12 35/48/12
f 34/49/13 30/50/13 32/51/13 36/52/13
g frame
v 0.5 -0.4375 -0.375
v 0.5 -0.4375 -0.5
v 0.5 -0.5 -0.375
v 0.5 -0.5 -0.5
v -0.5 -0.4375 -0.375
v -0.5 -0.4375 -0.5
v -0.5 -0.5 -0.375
v -0.5 -0.5 -0.5
v 0.5 0.5 -0.375
v 0.5 0.5 -0.5
v 0.5 0.4375 -0.375
v 0.5 0.4375 -0.5
v -0.5 0.5 -0.375
v -0.5 0.5 -0.5
v -0.5 0.4375 -0.375
v -0.5 0.4375 -0.5
v 0.5 -0.4375 -0.375
v 0.5 -0.4375 -0.5
v 0.4375 -0.4375 -0.375
v 0.4375 -0.4375 -0.5
v 0.5 0.4375 -0.375
v 0.5 0.4375 -0.5
v 0.4375 0.4375 -0.375
v 0.4375 0.4375 -0.5
v -0.4375 -0.4375 -0.375
v -0.4375 -0.4375 -0.5
v -0.5 -0.4375 -0.375
v -0.5 -0.4375 -0.5
v -0.4375 0.4375 -0.375
v -0.4375 0.4375 -0.5
v -0.5 0.4375 -0.375
v -0.5 0.4375 -0.5
vt 0.125 0.0625
vt 0 0.0625
vt 0 0
vt 0.125 0
vt 1 0.0625
vt 1 0.125
vt 0.875 0.125
vt 0.875 0.0625
vt 1 0.125
vt 0 0.125
vt 0 0
vt 1 0
vt 0 0.125
vt 0 0
vt 1 0
vt 1 0.125
vt 1 0
vt 1 0.0625
vt 0 0.0625
vt 0 0
vt 1 0.0625
vt 0 0.0625
vt 0 0
vt 1 0
vt 0.125 0.9375
vt 0 0.9375
vt 0 0.875
vt 0.125 0.875
vt 1 0.875
vt 1 0.9375
vt 0.875 0.9375
vt 0.875 0.875
vt 1 0.875
vt 0 0.875
vt 0 1
vt 1 1
vt 0 0.875
vt 0 0.75
vt 1 0.75
vt 1 0.875
vt 1 0.9375
vt 1 1
vt 0 1
vt 0 0.9375
vt 0 1
vt 1 1
vt 1 0.9375
vt 0 0.9375
vt 0.125 1
vt 0 1
vt 0 0.875
vt 0.125 0.875
vt 1 0.875
vt 1 1
vt 0.875 1
vt 0.875 0.875
vt 0 0.9375
vt 0 0.0625
vt 0.125 0.0625
vt 0.125 0.9375
vt 0 0.0625
vt 0.125 0.0625
vt 0.125 0.9375
vt 0 0.9375
vt 0.9375 0.0625
vt 1 0.0625
vt 1 0.9375
vt 0.9375 0.9375
vt 0 0.9375
vt 0 0.0625
vt 0.0625 0.0625
vt 0.0625 0.9375
vt 0.125 1
vt 0 1
vt 0 0.875
vt 0.125 0.875
vt 1 0.875
vt 1 1
vt 0.875 1
vt 0.875 0.875
vt 0 0.9375
vt 0 0.0625
vt 0.125 0.0625
vt 0.125 0.9375
vt 0.875 0.0625
vt 1 0.0625
vt 1 0.9375
vt 0.875 0.9375
vt 0 0.0625
vt 0.0625 0.0625
vt 0.0625 0.9375
vt 0 0.9375
vt 0.9375 0.9375
vt 0.9375 0.0625
vt 1 0.0625
vt 1 0.9375
vn 1 0 0
vn -1 0 0
vn 0 1 0
vn 0 -1 0
vn 0 0 1
vn 0 0 -1
vn 1 0 0
vn -1 0 0
vn 0 1 0
vn 0 -1 0
vn 0 0 1
vn 0 0 -1
vn 0 -1 0
vn 0 1 0
vn 1 0 0
vn -1 0 0
vn 0 0 1
vn 0 0 -1
vn 0 -1 0
vn 0 1 0
vn 1 0 0
vn -1 0 0
vn 0 0 1
vn 0 0 -1
usemtl m_93df7d82-3de4-5e77-5e04-91d46ee81b34
f 38/53/14 37/54/14 39/55/14 40/56/14
f 43/57/15 41/58/15 42/59/15 44/60/15
f 41/61/16 37/62/16 38/63/16 42/64/16
f 40/65/17 39/66/17 43/67/17 44/68/17
f 39/69/18 37/70/18 41/71/18 43/72/18
f 42/73/19 38/74/19 40/75/19 44/76/19
f 46/77/20 45/78/20 47/79/20 48/80/20
f 51/81/21 49/82/21 50/83/21 52/84/21
f 49/85/22 45/86/22 46/87/22 50/88/22
f 48/89/23 47/90/23 51/91/23 52/92/23
f 47/93/24 45/94/24 49/95/24 51/96/24
f 50/97/25 46/98/25 48/99/25 52/100/25
f 54/101/26 53/102/26 55/103/26 56/104/26
f 59/105/27 57/106/27 58/107/27 60/108/27
f 57/109/28 53/110/28 54/111/28 58/112/28
f 56/113/29 55/114/29 59/115/29 60/116/29
f 55/117/30 53/118/30 57/119/30 59/120/30
f 58/121/31 54/122/31 56/123/31 60/124/31
f 62/125/32 61/126/32 63/127/32 64/128/32
f 67/129/33 65/130/33 66/131/33 68/132/33
f 65/133/34 61/134/34 62/135/34 66/136/34
f 64/137/35 63/138/35 67/139/35 68/140/35
f 63/141/36 61/142/36 65/143/36 67/144/36
f 66/145/37 62/146/37 64/147/37 68/148/37
