# Made in Blockbench 5.1.6
mtllib odw_window_open.mtl

g glass
v 0.375 0.3521234122634726 -0.4771234122634726
v 0.375 -0.29739564057485646 -0.8521234122634725
v -0.375 0.3521234122634726 -0.4771234122634726
v -0.375 -0.29739564057485646 -0.8521234122634725
vt 0 1
vt 0 0
vt 1 0
vt 1 1
vn 0 0.49999999999999994 -0.8660254037844387
usemtl m_c5c2c7c6-6615-f3b1-bd40-9349c5ce180b
f 1/1/1 2/2/1 4/3/1 3/4/1
g frame
v 0.4375 -0.32864564057485646 -0.7979968245269451
v 0.4375 -0.26614564057485646 -0.90625
v 0.4375 -0.3827722283113839 -0.8292468245269451
v 0.4375 -0.3202722283113839 -0.9375
v -0.4375 -0.32864564057485646 -0.7979968245269451
v -0.4375 -0.26614564057485646 -0.90625
v -0.4375 -0.3827722283113839 -0.8292468245269451
v -0.4375 -0.3202722283113839 -0.9375
v 0.4375 0.375 -0.39174682452694515
v 0.4375 0.4375 -0.5
v 0.4375 0.3208734122634726 -0.42299682452694515
v 0.4375 0.3833734122634726 -0.53125
v -0.4375 0.375 -0.39174682452694515
v -0.4375 0.4375 -0.5
v -0.4375 0.3208734122634726 -0.42299682452694515
v -0.4375 0.3833734122634726 -0.53125
v 0.375 0.3208734122634726 -0.42299682452694515
v 0.375 0.3833734122634726 -0.53125
v 0.4375 0.3208734122634726 -0.42299682452694515
v 0.4375 0.3833734122634726 -0.53125
v 0.375 -0.32864564057485646 -0.7979968245269451
v 0.375 -0.26614564057485646 -0.90625
v 0.4375 -0.32864564057485646 -0.7979968245269451
v 0.4375 -0.26614564057485646 -0.90625
v -0.375 0.3833734122634726 -0.53125
v -0.375 0.3208734122634726 -0.42299682452694515
v -0.4375 0.3833734122634726 -0.53125
v -0.4375 0.3208734122634726 -0.42299682452694515
v -0.375 -0.26614564057485646 -0.90625
v -0.375 -0.32864564057485646 -0.7979968245269451
v -0.4375 -0.26614564057485646 -0.90625
v -0.4375 -0.32864564057485646 -0.7979968245269451
vt 0.125 0.9375
vt 0 0.9375
vt 0 0.875
vt 0.125 0.875
vt 1 0.875
vt 1 0.9375
vt 0.875 0.9375
vt 0.875 0.875
vt 0.0625 0
vt 0.9375 0
vt 0.9375 0.125
vt 0.0625 0.125
vt 0.9375 0.875
vt 0.9375 1
vt 0.0625 1
vt 0.0625 0.875
vt 0.9375 0.0625
vt 0.9375 0.125
vt 0.0625 0.125
vt 0.0625 0.0625
vt 0.9375 0.125
vt 0.0625 0.125
vt 0.0625 0.0625
vt 0.9375 0.0625
vt 0.125 0.9375
vt 0 0.9375
vt 0 0.875
vt 0.125 0.875
vt 1 0.875
vt 1 0.9375
vt 0.875 0.9375
vt 0.875 0.875
vt 0.0625 0.875
vt 0.9375 0.875
vt 0.9375 1
vt 0.0625 1
vt 0.9375 0.875
vt 0.9375 1
vt 0.0625 1
vt 0.0625 0.875
vt 0.9375 0.875
vt 0.9375 0.9375
vt 0.0625 0.9375
vt 0.0625 0.875
vt 0.0625 0.9375
vt 0.9375 0.9375
vt 0.9375 0.875
vt 0.0625 0.875
vt 0.125 0.125
vt 0.125 0.875
vt 0 0.875
vt 0 0.125
vt 0.125 0.875
vt 0 0.875
vt 0 0.125
vt 0.125 0.125
vt 0.9375 0.875
vt 0.875 0.875
vt 0.875 0.125
vt 0.9375 0.125
vt 0.125 0.125
vt 0.125 0.875
vt 0.0625 0.875
vt 0.0625 0.125
vt 1 0.125
vt 1 0.875
vt 0.875 0.875
vt 0.875 0.125
vt 0.125 0.875
vt 0 0.875
vt 0 0.125
vt 0.125 0.125
vt 0.9375 0.875
vt 0.875 0.875
vt 0.875 0.125
vt 0.9375 0.125
vt 0.125 0.125
vt 0.125 0.875
vt 0.0625 0.875
vt 0.0625 0.125
vn 1 0 0
vn -1 0 0
vn 0 0.8660254037844387 0.49999999999999994
vn 0 -0.8660254037844387 -0.49999999999999994
vn 0 -0.49999999999999994 0.8660254037844387
vn 0 0.49999999999999994 -0.8660254037844387
vn 1 0 0
vn -1 0 0
vn 0 0.8660254037844387 0.49999999999999994
vn 0 -0.8660254037844387 -0.49999999999999994
vn 0 -0.49999999999999994 0.8660254037844387
vn 0 0.49999999999999994 -0.8660254037844387
vn -1 0 0
vn 1 0 0
vn 0 -0.49999999999999994 0.8660254037844387
vn 0 0.49999999999999994 -0.8660254037844387
vn 1 0 0
vn -1 0 0
vn 0 0.49999999999999994 -0.8660254037844387
vn 0 -0.49999999999999994 0.8660254037844387
usemtl m_5ddc87bd-c772-8a86-5175-cb20bfbf6f2f
f 6/5/2 5/6/2 7/7/2 8/8/2
f 11/9/3 9/10/3 10/11/3 12/12/3
f 9/13/4 5/14/4 6/15/4 10/16/4
f 8/17/5 7/18/5 11/19/5 12/20/5
f 7/21/6 5/22/6 9/23/6 11/24/6
f 10/25/7 6/26/7 8/27/7 12/28/7
f 14/29/8 13/30/8 15/31/8 16/32/8
f 19/33/9 17/34/9 18/35/9 20/36/9
f 17/37/10 13/38/10 14/39/10 18/40/10
f 16/41/11 15/42/11 19/43/11 20/44/11
f 15/45/12 13/46/12 17/47/12 19/48/12
f 18/49/13 14/50/13 16/51/13 20/52/13
f 25/53/14 21/54/14 22/55/14 26/56/14
f 24/57/15 23/58/15 27/59/15 28/60/15
f 23/61/16 21/62/16 25/63/16 27/64/16
f 26/65/17 22/66/17 24/67/17 28/68/17
f 33/69/18 29/70/18 30/71/18 34/72/18
f 32/73/19 31/74/19 35/75/19 36/76/19
f 31/77/20 29/78/20 33/79/20 35/80/20
f 34/81/21 30/82/21 32/83/21 36/84/21
g frame
v 0.5 -0.4375 -0.375
v 0.5 -0.4375 -0.5
v 0.5 -0.5 -0.375
v 0.5 -0.5 -0.5
v -0.5 -0.4375 -0.375
v -0.5 -0.4375 -0.5
v -0.5 -0.5 -0.375
v -0.5 -0.5 -0.5
v 0.5 0.5 -0.375
v 0.5 0.5 -0.5
v 0.5 0.4375 -0.375
v 0.5 0.4375 -0.5
v -0.5 0.5 -0.375
v -0.5 0.5 -0.5
v -0.5 0.4375 -0.375
v -0.5 0.4375 -0.5
v 0.5 -0.4375 -0.375
v 0.5 -0.4375 -0.5
v 0.4375 -0.4375 -0.375
v 0.4375 -0.4375 -0.5
v 0.5 0.4375 -0.375
v 0.5 0.4375 -0.5
v 0.4375 0.4375 -0.375
v 0.4375 0.4375 -0.5
v -0.4375 -0.4375 -0.375
v -0.4375 -0.4375 -0.5
v -0.5 -0.4375 -0.375
v -0.5 -0.4375 -0.5
v -0.4375 0.4375 -0.375
v -0.4375 0.4375 -0.5
v -0.5 0.4375 -0.375
v -0.5 0.4375 -0.5
vt 0.125 0.0625
vt 0 0.0625
vt 0 0
vt 0.125 0
vt 1 0.0625
vt 1 0.125
vt 0.875 0.125
vt 0.875 0.0625
vt 1 0.125
vt 0 0.125
vt 0 0
vt 1 0
vt 0 0.125
vt 0 0
vt 1 0
vt 1 0.125
vt 1 0
vt 1 0.0625
vt 0 0.0625
vt 0 0
vt 1 0.0625
vt 0 0.0625
vt 0 0
vt 1 0
vt 0.125 0.9375
vt 0 0.9375
vt 0 0.875
vt 0.125 0.875
vt 1 0.875
vt 1 0.9375
vt 0.875 0.9375
vt 0.875 0.875
vt 1 0.875
vt 0 0.875
vt 0 1
vt 1 1
vt 0 0.875
vt 0 0.75
vt 1 0.75
vt 1 0.875
vt 1 0.9375
vt 1 1
vt 0 1
vt 0 0.9375
vt 0 1
vt 1 1
vt 1 0.9375
vt 0 0.9375
vt 0.125 1
vt 0 1
vt 0 0.875
vt 0.125 0.875
vt 1 0.875
vt 1 1
vt 0.875 1
vt 0.875 0.875
vt 0 0.9375
vt 0 0.0625
vt 0.125 0.0625
vt 0.125 0.9375
vt 0 0.0625
vt 0.125 0.0625
vt 0.125 0.9375
vt 0 0.9375
vt 0.9375 0.0625
vt 1 0.0625
vt 1 0.9375
vt 0.9375 0.9375
vt 0 0.9375
vt 0 0.0625
vt 0.0625 0.0625
vt 0.0625 0.9375
vt 0.125 1
vt 0 1
vt 0 0.875
vt 0.125 0.875
vt 1 0.875
vt 1 1
vt 0.875 1
vt 0.875 0.875
vt 0 0.9375
vt 0 0.0625
vt 0.125 0.0625
vt 0.125 0.9375
vt 0.875 0.0625
vt 1 0.0625
vt 1 0.9375
vt 0.875 0.9375
vt 0 0.0625
vt 0.0625 0.0625
vt 0.0625 0.9375
vt 0 0.9375
vt 0.9375 0.9375
vt 0.9375 0.0625
vt 1 0.0625
vt 1 0.9375
vn 1 0 0
vn -1 0 0
vn 0 1 0
vn 0 -1 0
vn 0 0 1
vn 0 0 -1
vn 1 0 0
vn -1 0 0
vn 0 1 0
vn 0 -1 0
vn 0 0 1
vn 0 0 -1
vn 0 -1 0
vn 0 1 0
vn 1 0 0
vn -1 0 0
vn 0 0 1
vn 0 0 -1
vn 0 -1 0
vn 0 1 0
vn 1 0 0
vn -1 0 0
vn 0 0 1
vn 0 0 -1
usemtl m_5ddc87bd-c772-8a86-5175-cb20bfbf6f2f
f 38/85/22 37/86/22 39/87/22 40/88/22
f 43/89/23 41/90/23 42/91/23 44/92/23
f 41/93/24 37/94/24 38/95/24 42/96/24
f 40/97/25 39/98/25 43/99/25 44/100/25
f 39/101/26 37/102/26 41/103/26 43/104/26
f 42/105/27 38/106/27 40/107/27 44/108/27
f 46/109/28 45/110/28 47/111/28 48/112/28
f 51/113/29 49/114/29 50/115/29 52/116/29
f 49/117/30 45/118/30 46/119/30 50/120/30
f 48/121/31 47/122/31 51/123/31 52/124/31
f 47/125/32 45/126/32 49/127/32 51/128/32
f 50/129/33 46/130/33 48/131/33 52/132/33
f 54/133/34 53/134/34 55/135/34 56/136/34
f 59/137/35 57/138/35 58/139/35 60/140/35
f 57/141/36 53/142/36 54/143/36 58/144/36
f 56/145/37 55/146/37 59/147/37 60/148/37
f 55/149/38 53/150/38 57/151/38 59/152/38
f 58/153/39 54/154/39 56/155/39 60/156/39
f 62/157/40 61/158/40 63/159/40 64/160/40
f 67/161/41 65/162/41 66/163/41 68/164/41
f 65/165/42 61/166/42 62/167/42 66/168/42
f 64/169/43 63/170/43 67/171/43 68/172/43
f 63/173/44 61/174/44 65/175/44 67/176/44
f 66/177/45 62/178/45 64/179/45 68/180/45
