# Made in Blockbench 5.1.6
mtllib odw_dble_window.mtl

g glass
v 1.375 0.375 -0.4375
v 1.375 -0.375 -0.4375
v -0.375 0.375 -0.4375
v -0.375 -0.375 -0.4375
vt 0 1
vt 0 0
vt 1 0
vt 1 1
vn 0 0 -1
usemtl m_e804c193-d039-1101-41f9-4d0bbf29b813
f 1/1/1 2/2/1 4/3/1 3/4/1
g frame
v -0.375 0.375 -0.5
v -0.375 0.375 -0.375
v -0.4375 0.375 -0.5
v -0.4375 0.375 -0.375
v -0.375 -0.375 -0.5
v -0.375 -0.375 -0.375
v -0.4375 -0.375 -0.5
v -0.4375 -0.375 -0.375
v 1.375 0.375 -0.375
v 1.375 0.375 -0.5
v 1.4375 0.375 -0.375
v 1.4375 0.375 -0.5
v 1.375 -0.375 -0.375
v 1.375 -0.375 -0.5
v 1.4375 -0.375 -0.375
v 1.4375 -0.375 -0.5
v 1.4375 -0.375 -0.375
v 1.4375 -0.375 -0.5
v 1.4375 -0.4375 -0.375
v 1.4375 -0.4375 -0.5
v -0.4375 -0.375 -0.375
v -0.4375 -0.375 -0.5
v -0.4375 -0.4375 -0.375
v -0.4375 -0.4375 -0.5
v 1.4375 0.4375 -0.375
v 1.4375 0.4375 -0.5
v 1.4375 0.375 -0.375
v 1.4375 0.375 -0.5
v -0.4375 0.4375 -0.375
v -0.4375 0.4375 -0.5
v -0.4375 0.375 -0.375
v -0.4375 0.375 -0.5
vt 1 0.125
vt 1 0.875
vt 0.9375 0.875
vt 0.9375 0.125
vt 1 0.875
vt 0.9375 0.875
vt 0.9375 0.125
vt 1 0.125
vt 0.96875 0.875
vt 0.9375 0.875
vt 0.9375 0.125
vt 0.96875 0.125
vt 0.0625 0.125
vt 0.0625 0.875
vt 0.03125 0.875
vt 0.03125 0.125
vt 0.0625 0.125
vt 0.0625 0.875
vt 0 0.875
vt 0 0.125
vt 0.0625 0.875
vt 0 0.875
vt 0 0.125
vt 0.0625 0.125
vt 0.96875 0.875
vt 0.9375 0.875
vt 0.9375 0.125
vt 0.96875 0.125
vt 0.0625 0.125
vt 0.0625 0.875
vt 0.03125 0.875
vt 0.03125 0.125
vt 0.0625 0.9375
vt 0 0.9375
vt 0 0.875
vt 0.0625 0.875
vt 1 0.0625
vt 1 0.125
vt 0.9375 0.125
vt 0.9375 0.0625
vt 0.03125 0
vt 0.96875 0
vt 0.96875 0.125
vt 0.03125 0.125
vt 0.96875 0.0625
vt 0.96875 0.1875
vt 0.03125 0.1875
vt 0.03125 0.0625
vt 0.96875 0.0625
vt 0.96875 0.125
vt 0.03125 0.125
vt 0.03125 0.0625
vt 0.96875 0.125
vt 0.03125 0.125
vt 0.03125 0.0625
vt 0.96875 0.0625
vt 0.0625 0.9375
vt 0 0.9375
vt 0 0.875
vt 0.0625 0.875
vt 1 0.875
vt 1 0.9375
vt 0.9375 0.9375
vt 0.9375 0.875
vt 0.03125 0.875
vt 0.96875 0.875
vt 0.96875 1
vt 0.03125 1
vt 0.96875 0.875
vt 0.96875 1
vt 0.03125 1
vt 0.03125 0.875
vt 0.96875 0.875
vt 0.96875 0.9375
vt 0.03125 0.9375
vt 0.03125 0.875
vt 0.96875 0.9375
vt 0.03125 0.9375
vt 0.03125 0.875
vt 0.96875 0.875
vn 1 0 0
vn -1 0 0
vn 0 0 -1
vn 0 0 1
vn -1 0 0
vn 1 0 0
vn 0 0 1
vn 0 0 -1
vn 1 0 0
vn -1 0 0
vn 0 1 0
vn 0 -1 0
vn 0 0 1
vn 0 0 -1
vn 1 0 0
vn -1 0 0
vn 0 1 0
vn 0 -1 0
vn 0 0 1
vn 0 0 -1
usemtl m_0b776d01-a21f-a42a-5d46-661383d6cade
f 9/5/2 5/6/2 6/7/2 10/8/2
f 8/9/3 7/10/3 11/11/3 12/12/3
f 7/13/4 5/14/4 9/15/4 11/16/4
f 10/17/5 6/18/5 8/19/5 12/20/5
f 17/21/6 13/22/6 14/23/6 18/24/6
f 16/25/7 15/26/7 19/27/7 20/28/7
f 15/29/8 13/30/8 17/31/8 19/32/8
f 18/33/9 14/34/9 16/35/9 20/36/9
f 22/37/10 21/38/10 23/39/10 24/40/10
f 27/41/11 25/42/11 26/43/11 28/44/11
f 25/45/12 21/46/12 22/47/12 26/48/12
f 24/49/13 23/50/13 27/51/13 28/52/13
f 23/53/14 21/54/14 25/55/14 27/56/14
f 26/57/15 22/58/15 24/59/15 28/60/15
f 30/61/16 29/62/16 31/63/16 32/64/16
f 35/65/17 33/66/17 34/67/17 36/68/17
f 33/69/18 29/70/18 30/71/18 34/72/18
f 32/73/19 31/74/19 35/75/19 36/76/19
f 31/77/20 29/78/20 33/79/20 35/80/20
f 34/81/21 30/82/21 32/83/21 36/84/21
g frame
v 1.5 -0.4375 -0.375
v 1.5 -0.4375 -0.5
v 1.5 -0.5 -0.375
v 1.5 -0.5 -0.5
v -0.5 -0.4375 -0.375
v -0.5 -0.4375 -0.5
v -0.5 -0.5 -0.375
v -0.5 -0.5 -0.5
v 1.5 0.5 -0.375
v 1.5 0.5 -0.5
v 1.5 0.4375 -0.375
v 1.5 0.4375 -0.5
v -0.5 0.5 -0.375
v -0.5 0.5 -0.5
v -0.5 0.4375 -0.375
v -0.5 0.4375 -0.5
v 1.5 -0.4375 -0.375
v 1.5 -0.4375 -0.5
v 1.4375 -0.4375 -0.375
v 1.4375 -0.4375 -0.5
v 1.5 0.4375 -0.375
v 1.5 0.4375 -0.5
v 1.4375 0.4375 -0.375
v 1.4375 0.4375 -0.5
v -0.4375 -0.4375 -0.375
v -0.4375 -0.4375 -0.5
v -0.5 -0.4375 -0.375
v -0.5 -0.4375 -0.5
v -0.4375 0.4375 -0.375
v -0.4375 0.4375 -0.5
v -0.5 0.4375 -0.375
v -0.5 0.4375 -0.5
vt 0.0625 0.0625
vt 0 0.0625
vt 0 0
vt 0.0625 0
vt 0.5625 0.0625
vt 0.5625 0.125
vt 0.5 0.125
vt 0.5 0.0625
vt 1 0.125
vt 0 0.125
vt 0 0
vt 1 0
vt 0 0.125
vt 0 0
vt 1 0
vt 1 0.125
vt 1 0
vt 1 0.0625
vt 0 0.0625
vt 0 0
vt 1 0.0625
vt 0 0.0625
vt 0 0
vt 1 0
vt 0.0625 0.125
vt 0 0.125
vt 0 0.0625
vt 0.0625 0.0625
vt 0.5625 0.875
vt 0.5625 0.9375
vt 0.5 0.9375
vt 0.5 0.875
vt 1 1
vt 0 1
vt 0 0.875
vt 1 0.875
vt 0 0.875
vt 0 0.75
vt 0.5 0.75
vt 0.5 0.875
vt 1 0.9375
vt 1 1
vt 0 1
vt 0 0.9375
vt 1 1
vt 0 1
vt 0 0.9375
vt 1 0.9375
vt 0 0.9375
vt 0 0.0625
vt 0.0625 0.0625
vt 0.0625 0.9375
vt 0 0.0625
vt 0.0625 0.0625
vt 0.0625 0.9375
vt 0 0.9375
vt 0.9375 0.0625
vt 0.96875 0.0625
vt 0.96875 0.9375
vt 0.9375 0.9375
vt 0 0.9375
vt 0 0.0625
vt 0.03125 0.0625
vt 0.03125 0.9375
vt 0.9375 0.9375
vt 0.9375 0.0625
vt 1 0.0625
vt 1 0.9375
vt 0.9375 0.0625
vt 1 0.0625
vt 1 0.9375
vt 0.9375 0.9375
vt 0 0.0625
vt 0.03125 0.0625
vt 0.03125 0.9375
vt 0 0.9375
vt 0.9375 0.9375
vt 0.9375 0.0625
vt 0.96875 0.0625
vt 0.96875 0.9375
vn 1 0 0
vn -1 0 0
vn 0 1 0
vn 0 -1 0
vn 0 0 1
vn 0 0 -1
vn 1 0 0
vn -1 0 0
vn 0 1 0
vn 0 -1 0
vn 0 0 1
vn 0 0 -1
vn 1 0 0
vn -1 0 0
vn 0 0 1
vn 0 0 -1
vn 1 0 0
vn -1 0 0
vn 0 0 1
vn 0 0 -1
usemtl m_0b776d01-a21f-a42a-5d46-661383d6cade
f 38/85/22 37/86/22 39/87/22 40/88/22
f 43/89/23 41/90/23 42/91/23 44/92/23
f 41/93/24 37/94/24 38/95/24 42/96/24
f 40/97/25 39/98/25 43/99/25 44/100/25
f 39/101/26 37/102/26 41/103/26 43/104/26
f 42/105/27 38/106/27 40/107/27 44/108/27
f 46/109/28 45/110/28 47/111/28 48/112/28
f 51/113/29 49/114/29 50/115/29 52/116/29
f 49/117/30 45/118/30 46/119/30 50/120/30
f 48/121/31 47/122/31 51/123/31 52/124/31
f 47/125/32 45/126/32 49/127/32 51/128/32
f 50/129/33 46/130/33 48/131/33 52/132/33
f 57/133/34 53/134/34 54/135/34 58/136/34
f 56/137/35 55/138/35 59/139/35 60/140/35
f 55/141/36 53/142/36 57/143/36 59/144/36
f 58/145/37 54/146/37 56/147/37 60/148/37
f 65/149/38 61/150/38 62/151/38 66/152/38
f 64/153/39 63/154/39 67/155/39 68/156/39
f 63/157/40 61/158/40 65/159/40 67/160/40
f 66/161/41 62/162/41 64/163/41 68/164/41
