# Made in Blockbench 5.1.6
mtllib dsw_window.mtl

g glass
v 0.375 0.375 -0.375
v 0.375 -0.375 -0.375
v -0.375 0.375 -0.375
v -0.375 -0.375 -0.375
vt 0.125 0.4375
vt 0.125 0.0625
vt 0.875 0.0625
vt 0.875 0.4375
vn 0 0 -1
usemtl m_7c1eefed-6214-13c1-dc6e-e387e4817460
f 1/1/1 2/2/1 4/3/1 3/4/1
g frame
v 0.5 -0.4375 -0.375
v 0.5 -0.4375 -0.4375
v 0.5 -0.5 -0.375
v 0.5 -0.5 -0.4375
v -0.5 -0.4375 -0.375
v -0.5 -0.4375 -0.4375
v -0.5 -0.5 -0.375
v -0.5 -0.5 -0.4375
v 0.5 0.5 -0.375
v 0.5 0.5 -0.4375
v 0.5 0.4375 -0.375
v 0.5 0.4375 -0.4375
v -0.5 0.5 -0.375
v -0.5 0.5 -0.4375
v -0.5 0.4375 -0.375
v -0.5 0.4375 -0.4375
v 0.5 -0.4375 -0.375
v 0.5 -0.4375 -0.4375
v 0.4375 -0.4375 -0.375
v 0.4375 -0.4375 -0.4375
v 0.5 0.4375 -0.375
v 0.5 0.4375 -0.4375
v 0.4375 0.4375 -0.375
v 0.4375 0.4375 -0.4375
v -0.4375 -0.4375 -0.375
v -0.4375 -0.4375 -0.4375
v -0.5 -0.4375 -0.375
v -0.5 -0.4375 -0.4375
v -0.4375 0.4375 -0.375
v -0.4375 0.4375 -0.4375
v -0.5 0.4375 -0.375
v -0.5 0.4375 -0.4375
v 0.4375 -0.375 -0.375
v 0.4375 -0.375 -0.4375
v 0.4375 -0.4375 -0.375
v 0.4375 -0.4375 -0.4375
v -0.4375 -0.375 -0.375
v -0.4375 -0.375 -0.4375
v -0.4375 -0.4375 -0.375
v -0.4375 -0.4375 -0.4375
v 0.4375 0.4375 -0.375
v 0.4375 0.4375 -0.4375
v 0.4375 0.375 -0.375
v 0.4375 0.375 -0.4375
v -0.4375 0.4375 -0.375
v -0.4375 0.4375 -0.4375
v -0.4375 0.375 -0.375
v -0.4375 0.375 -0.4375
v 0.375 0.375 -0.375
v 0.375 0.375 -0.4375
v 0.4375 0.375 -0.375
v 0.4375 0.375 -0.4375
v 0.375 -0.375 -0.375
v 0.375 -0.375 -0.4375
v 0.4375 -0.375 -0.375
v 0.4375 -0.375 -0.4375
v -0.375 0.375 -0.4375
v -0.375 0.375 -0.375
v -0.4375 0.375 -0.4375
v -0.4375 0.375 -0.375
v -0.375 -0.375 -0.4375
v -0.375 -0.375 -0.375
v -0.4375 -0.375 -0.4375
v -0.4375 -0.375 -0.375
vt 0.0625 0.53125
vt 0 0.53125
vt 0 0.5
vt 0.0625 0.5
vt 0.9375 0.53125
vt 0.9375 0.5625
vt 0.875 0.5625
vt 0.875 0.53125
vt 0 0.53125
vt 1 0.53125
vt 1 0.5625
vt 0 0.5625
vt 0 0.53125
vt 0 0.5625
vt 1 0.5625
vt 1 0.53125
vt 1 0.5
vt 1 0.53125
vt 0 0.53125
vt 0 0.5
vt 0 0.03125
vt 1 0.03125
vt 1 0
vt 0 0
vt 0.0625 1
vt 0 1
vt 0 0.96875
vt 0.0625 0.96875
vt 0.9375 0.96875
vt 0.9375 1
vt 0.875 1
vt 0.875 0.96875
vt 1 0.96875
vt 0 0.96875
vt 0 1
vt 1 1
vt 1 0.9375
vt 1 0.96875
vt 0 0.96875
vt 0 0.9375
vt 1 0.96875
vt 1 1
vt 0 1
vt 0 0.96875
vt 1 0.5
vt 0 0.5
vt 0 0.46875
vt 1 0.46875
vt 0.125 1
vt 0 1
vt 0 0.9375
vt 0.125 0.9375
vt 1 0.9375
vt 1 1
vt 0.875 1
vt 0.875 0.9375
vt 0 0.96875
vt 0 0.53125
vt 0.0625 0.53125
vt 0.0625 0.96875
vt 0.0625 0.53125
vt 0.125 0.53125
vt 0.125 0.96875
vt 0.0625 0.96875
vt 0.9375 0.53125
vt 1 0.53125
vt 1 0.96875
vt 0.9375 0.96875
vt 0 0.46875
vt 0 0.03125
vt 0.0625 0.03125
vt 0.0625 0.46875
vt 0.125 1
vt 0 1
vt 0 0.9375
vt 0.125 0.9375
vt 1 0.9375
vt 1 1
vt 0.875 1
vt 0.875 0.9375
vt 0.875 0.96875
vt 0.875 0.53125
vt 0.9375 0.53125
vt 0.9375 0.96875
vt 0.875 0.53125
vt 0.9375 0.53125
vt 0.9375 0.96875
vt 0.875 0.96875
vt 0 0.53125
vt 0.0625 0.53125
vt 0.0625 0.96875
vt 0 0.96875
vt 0.9375 0.46875
vt 0.9375 0.03125
vt 1 0.03125
vt 1 0.46875
vt 0.125 0.5625
vt 0.0625 0.5625
vt 0.0625 0.53125
vt 0.125 0.53125
vt 0.9375 0.53125
vt 0.9375 0.5625
vt 0.875 0.5625
vt 0.875 0.53125
vt 0.0625 0.53125
vt 0.9375 0.53125
vt 0.9375 0.5625
vt 0.0625 0.5625
vt 0.9375 0.5
vt 0.9375 0.53125
vt 0.0625 0.53125
vt 0.0625 0.5
vt 0.9375 0.53125
vt 0.9375 0.5625
vt 0.0625 0.5625
vt 0.0625 0.53125
vt 0.9375 0.0625
vt 0.0625 0.0625
vt 0.0625 0.03125
vt 0.9375 0.03125
vt 0.125 0.96875
vt 0.0625 0.96875
vt 0.0625 0.9375
vt 0.125 0.9375
vt 0.9375 0.9375
vt 0.9375 0.96875
vt 0.875 0.96875
vt 0.875 0.9375
vt 0.0625 0.9375
vt 0.9375 0.9375
vt 0.9375 0.96875
vt 0.0625 0.96875
vt 0.9375 0.9375
vt 0.9375 0.96875
vt 0.0625 0.96875
vt 0.0625 0.9375
vt 0.9375 0.9375
vt 0.9375 0.96875
vt 0.0625 0.96875
vt 0.0625 0.9375
vt 0.9375 0.46875
vt 0.0625 0.46875
vt 0.0625 0.4375
vt 0.9375 0.4375
vt 0.125 0.5625
vt 0.125 0.9375
vt 0.0625 0.9375
vt 0.0625 0.5625
vt 0.125 0.9375
vt 0.0625 0.9375
vt 0.0625 0.5625
vt 0.125 0.5625
vt 0.9375 0.9375
vt 0.875 0.9375
vt 0.875 0.5625
vt 0.9375 0.5625
vt 0.125 0.0625
vt 0.125 0.4375
vt 0.0625 0.4375
vt 0.0625 0.0625
vt 0.875 0.53125
vt 0.875 0.90625
vt 0.75 0.90625
vt 0.75 0.53125
vt 0.9375 0.9375
vt 0.875 0.9375
vt 0.875 0.5625
vt 0.9375 0.5625
vt 0.9375 0.4375
vt 0.875 0.4375
vt 0.875 0.0625
vt 0.9375 0.0625
vt 0.125 0.5625
vt 0.125 0.9375
vt 0.0625 0.9375
vt 0.0625 0.5625
vn 1 0 0
vn -1 0 0
vn 0 1 0
vn 0 -1 0
vn 0 0 1
vn 0 0 -1
vn 1 0 0
vn -1 0 0
vn 0 1 0
vn 0 -1 0
vn 0 0 1
vn 0 0 -1
vn 0 -1 0
vn 0 1 0
vn 1 0 0
vn -1 0 0
vn 0 0 1
vn 0 0 -1
vn 0 -1 0
vn 0 1 0
vn 1 0 0
vn -1 0 0
vn 0 0 1
vn 0 0 -1
vn 1 0 0
vn -1 0 0
vn 0 1 0
vn 0 -1 0
vn 0 0 1
vn 0 0 -1
vn 1 0 0
vn -1 0 0
vn 0 1 0
vn 0 -1 0
vn 0 0 1
vn 0 0 -1
vn -1 0 0
vn 1 0 0
vn 0 0 1
vn 0 0 -1
vn 1 0 0
vn -1 0 0
vn 0 0 -1
vn 0 0 1
usemtl m_7c1eefed-6214-13c1-dc6e-e387e4817460
f 6/5/2 5/6/2 7/7/2 8/8/2
f 11/9/3 9/10/3 10/11/3 12/12/3
f 9/13/4 5/14/4 6/15/4 10/16/4
f 8/17/5 7/18/5 11/19/5 12/20/5
f 7/21/6 5/22/6 9/23/6 11/24/6
f 10/25/7 6/26/7 8/27/7 12/28/7
f 14/29/8 13/30/8 15/31/8 16/32/8
f 19/33/9 17/34/9 18/35/9 20/36/9
f 17/37/10 13/38/10 14/39/10 18/40/10
f 16/41/11 15/42/11 19/43/11 20/44/11
f 15/45/12 13/46/12 17/47/12 19/48/12
f 18/49/13 14/50/13 16/51/13 20/52/13
f 22/53/14 21/54/14 23/55/14 24/56/14
f 27/57/15 25/58/15 26/59/15 28/60/15
f 25/61/16 21/62/16 22/63/16 26/64/16
f 24/65/17 23/66/17 27/67/17 28/68/17
f 23/69/18 21/70/18 25/71/18 27/72/18
f 26/73/19 22/74/19 24/75/19 28/76/19
f 30/77/20 29/78/20 31/79/20 32/80/20
f 35/81/21 33/82/21 34/83/21 36/84/21
f 33/85/22 29/86/22 30/87/22 34/88/22
f 32/89/23 31/90/23 35/91/23 36/92/23
f 31/93/24 29/94/24 33/95/24 35/96/24
f 34/97/25 30/98/25 32/99/25 36/100/25
f 38/101/26 37/102/26 39/103/26 40/104/26
f 43/105/27 41/106/27 42/107/27 44/108/27
f 41/109/28 37/110/28 38/111/28 42/112/28
f 40/113/29 39/114/29 43/115/29 44/116/29
f 39/117/30 37/118/30 41/119/30 43/120/30
f 42/121/31 38/122/31 40/123/31 44/124/31
f 46/125/32 45/126/32 47/127/32 48/128/32
f 51/129/33 49/130/33 50/131/33 52/132/33
f 49/133/34 45/134/34 46/135/34 50/136/34
f 48/137/35 47/138/35 51/139/35 52/140/35
f 47/141/36 45/142/36 49/143/36 51/144/36
f 50/145/37 46/146/37 48/147/37 52/148/37
f 57/149/38 53/150/38 54/151/38 58/152/38
f 56/153/39 55/154/39 59/155/39 60/156/39
f 55/157/40 53/158/40 57/159/40 59/160/40
f 58/161/41 54/162/41 56/163/41 60/164/41
f 65/165/42 61/166/42 62/167/42 66/168/42
f 64/169/43 63/170/43 67/171/43 68/172/43
f 63/173/44 61/174/44 65/175/44 67/176/44
f 66/177/45 62/178/45 64/179/45 68/180/45
g glass
v 0.375 1.375 -0.4375
v 0.375 0.625 -0.4375
v -0.375 1.375 -0.4375
v -0.375 0.625 -0.4375
vt 0.125 0.9375
vt 0.125 0.5625
vt 0.875 0.5625
vt 0.875 0.9375
vn 0 0 -1
usemtl m_7c1eefed-6214-13c1-dc6e-e387e4817460
f 69/181/46 70/182/46 72/183/46 71/184/46
g frame
v 0.5 0.5625 -0.4375
v 0.5 0.5625 -0.5
v 0.5 0.5 -0.4375
v 0.5 0.5 -0.5
v -0.5 0.5625 -0.4375
v -0.5 0.5625 -0.5
v -0.5 0.5 -0.4375
v -0.5 0.5 -0.5
v 0.5 1.5 -0.4375
v 0.5 1.5 -0.5
v 0.5 1.4375 -0.4375
v 0.5 1.4375 -0.5
v -0.5 1.5 -0.4375
v -0.5 1.5 -0.5
v -0.5 1.4375 -0.4375
v -0.5 1.4375 -0.5
v 0.5 0.5625 -0.4375
v 0.5 0.5625 -0.5
v 0.4375 0.5625 -0.4375
v 0.4375 0.5625 -0.5
v 0.5 1.4375 -0.4375
v 0.5 1.4375 -0.5
v 0.4375 1.4375 -0.4375
v 0.4375 1.4375 -0.5
v -0.4375 0.5625 -0.4375
v -0.4375 0.5625 -0.5
v -0.5 0.5625 -0.4375
v -0.5 0.5625 -0.5
v -0.4375 1.4375 -0.4375
v -0.4375 1.4375 -0.5
v -0.5 1.4375 -0.4375
v -0.5 1.4375 -0.5
v 0.4375 0.625 -0.4375
v 0.4375 0.625 -0.5
v 0.4375 0.5625 -0.4375
v 0.4375 0.5625 -0.5
v -0.4375 0.625 -0.4375
v -0.4375 0.625 -0.5
v -0.4375 0.5625 -0.4375
v -0.4375 0.5625 -0.5
v 0.4375 1.4375 -0.4375
v 0.4375 1.4375 -0.5
v 0.4375 1.375 -0.4375
v 0.4375 1.375 -0.5
v -0.4375 1.4375 -0.4375
v -0.4375 1.4375 -0.5
v -0.4375 1.375 -0.4375
v -0.4375 1.375 -0.5
v 0.375 1.375 -0.4375
v 0.375 1.375 -0.5
v 0.4375 1.375 -0.4375
v 0.4375 1.375 -0.5
v 0.375 0.625 -0.4375
v 0.375 0.625 -0.5
v 0.4375 0.625 -0.4375
v 0.4375 0.625 -0.5
v -0.375 1.375 -0.5
v -0.375 1.375 -0.4375
v -0.4375 1.375 -0.5
v -0.4375 1.375 -0.4375
v -0.375 0.625 -0.5
v -0.375 0.625 -0.4375
v -0.4375 0.625 -0.5
v -0.4375 0.625 -0.4375
vt 0.0625 0.53125
vt 0 0.53125
vt 0 0.5
vt 0.0625 0.5
vt 0.9375 0.53125
vt 0.9375 0.5625
vt 0.875 0.5625
vt 0.875 0.53125
vt 0 0.53125
vt 1 0.53125
vt 1 0.5625
vt 0 0.5625
vt 0 0.53125
vt 0 0.5625
vt 1 0.5625
vt 1 0.53125
vt 1 0.5
vt 1 0.53125
vt 0 0.53125
vt 0 0.5
vt 0 0.53125
vt 1 0.53125
vt 1 0.5
vt 0 0.5
vt 0.0625 1
vt 0 1
vt 0 0.96875
vt 0.0625 0.96875
vt 0.9375 0.96875
vt 0.9375 1
vt 0.875 1
vt 0.875 0.96875
vt 1 0.96875
vt 0 0.96875
vt 0 1
vt 1 1
vt 1 0.9375
vt 1 0.96875
vt 0 0.96875
vt 0 0.9375
vt 1 0.96875
vt 1 1
vt 0 1
vt 0 0.96875
vt 1 1
vt 0 1
vt 0 0.96875
vt 1 0.96875
vt 0.125 1
vt 0 1
vt 0 0.9375
vt 0.125 0.9375
vt 1 0.9375
vt 1 1
vt 0.875 1
vt 0.875 0.9375
vt 0 0.96875
vt 0 0.53125
vt 0.0625 0.53125
vt 0.0625 0.96875
vt 0.0625 0.53125
vt 0.125 0.53125
vt 0.125 0.96875
vt 0.0625 0.96875
vt 0.9375 0.53125
vt 1 0.53125
vt 1 0.96875
vt 0.9375 0.96875
vt 0 0.96875
vt 0 0.53125
vt 0.0625 0.53125
vt 0.0625 0.96875
vt 0.125 1
vt 0 1
vt 0 0.9375
vt 0.125 0.9375
vt 1 0.9375
vt 1 1
vt 0.875 1
vt 0.875 0.9375
vt 0.875 0.96875
vt 0.875 0.53125
vt 0.9375 0.53125
vt 0.9375 0.96875
vt 0.875 0.53125
vt 0.9375 0.53125
vt 0.9375 0.96875
vt 0.875 0.96875
vt 0 0.53125
vt 0.0625 0.53125
vt 0.0625 0.96875
vt 0 0.96875
vt 0.9375 0.96875
vt 0.9375 0.53125
vt 1 0.53125
vt 1 0.96875
vt 0.125 0.5625
vt 0.0625 0.5625
vt 0.0625 0.53125
vt 0.125 0.53125
vt 0.9375 0.53125
vt 0.9375 0.5625
vt 0.875 0.5625
vt 0.875 0.53125
vt 0.0625 0.53125
vt 0.9375 0.53125
vt 0.9375 0.5625
vt 0.0625 0.5625
vt 0.9375 0.5
vt 0.9375 0.53125
vt 0.0625 0.53125
vt 0.0625 0.5
vt 0.9375 0.53125
vt 0.9375 0.5625
vt 0.0625 0.5625
vt 0.0625 0.53125
vt 0.9375 0.5625
vt 0.0625 0.5625
vt 0.0625 0.53125
vt 0.9375 0.53125
vt 0.125 0.96875
vt 0.0625 0.96875
vt 0.0625 0.9375
vt 0.125 0.9375
vt 0.9375 0.9375
vt 0.9375 0.96875
vt 0.875 0.96875
vt 0.875 0.9375
vt 0.0625 0.9375
vt 0.9375 0.9375
vt 0.9375 0.96875
vt 0.0625 0.96875
vt 0.9375 0.9375
vt 0.9375 0.96875
vt 0.0625 0.96875
vt 0.0625 0.9375
vt 0.9375 0.9375
vt 0.9375 0.96875
vt 0.0625 0.96875
vt 0.0625 0.9375
vt 0.9375 0.96875
vt 0.0625 0.96875
vt 0.0625 0.9375
vt 0.9375 0.9375
vt 0.125 0.5625
vt 0.125 0.9375
vt 0.0625 0.9375
vt 0.0625 0.5625
vt 0.125 0.9375
vt 0.0625 0.9375
vt 0.0625 0.5625
vt 0.125 0.5625
vt 0.9375 0.9375
vt 0.875 0.9375
vt 0.875 0.5625
vt 0.9375 0.5625
vt 0.125 0.5625
vt 0.125 0.9375
vt 0.0625 0.9375
vt 0.0625 0.5625
vt 0.875 0.53125
vt 0.875 0.90625
vt 0.75 0.90625
vt 0.75 0.53125
vt 0.9375 0.9375
vt 0.875 0.9375
vt 0.875 0.5625
vt 0.9375 0.5625
vt 0.9375 0.9375
vt 0.875 0.9375
vt 0.875 0.5625
vt 0.9375 0.5625
vt 0.125 0.5625
vt 0.125 0.9375
vt 0.0625 0.9375
vt 0.0625 0.5625
vn 1 0 0
vn -1 0 0
vn 0 1 0
vn 0 -1 0
vn 0 0 1
vn 0 0 -1
vn 1 0 0
vn -1 0 0
vn 0 1 0
vn 0 -1 0
vn 0 0 1
vn 0 0 -1
vn 0 -1 0
vn 0 1 0
vn 1 0 0
vn -1 0 0
vn 0 0 1
vn 0 0 -1
vn 0 -1 0
vn 0 1 0
vn 1 0 0
vn -1 0 0
vn 0 0 1
vn 0 0 -1
vn 1 0 0
vn -1 0 0
vn 0 1 0
vn 0 -1 0
vn 0 0 1
vn 0 0 -1
vn 1 0 0
vn -1 0 0
vn 0 1 0
vn 0 -1 0
vn 0 0 1
vn 0 0 -1
vn -1 0 0
vn 1 0 0
vn 0 0 1
vn 0 0 -1
vn 1 0 0
vn -1 0 0
vn 0 0 -1
vn 0 0 1
usemtl m_7c1eefed-6214-13c1-dc6e-e387e4817460
f 74/185/47 73/186/47 75/187/47 76/188/47
f 79/189/48 77/190/48 78/191/48 80/192/48
f 77/193/49 73/194/49 74/195/49 78/196/49
f 76/197/50 75/198/50 79/199/50 80/200/50
f 75/201/51 73/202/51 77/203/51 79/204/51
f 78/205/52 74/206/52 76/207/52 80/208/52
f 82/209/53 81/210/53 83/211/53 84/212/53
f 87/213/54 85/214/54 86/215/54 88/216/54
f 85/217/55 81/218/55 82/219/55 86/220/55
f 84/221/56 83/222/56 87/223/56 88/224/56
f 83/225/57 81/226/57 85/227/57 87/228/57
f 86/229/58 82/230/58 84/231/58 88/232/58
f 90/233/59 89/234/59 91/235/59 92/236/59
f 95/237/60 93/238/60 94/239/60 96/240/60
f 93/241/61 89/242/61 90/243/61 94/244/61
f 92/245/62 91/246/62 95/247/62 96/248/62
f 91/249/63 89/250/63 93/251/63 95/252/63
f 94/253/64 90/254/64 92/255/64 96/256/64
f 98/257/65 97/258/65 99/259/65 100/260/65
f 103/261/66 101/262/66 102/263/66 104/264/66
f 101/265/67 97/266/67 98/267/67 102/268/67
f 100/269/68 99/270/68 103/271/68 104/272/68
f 99/273/69 97/274/69 101/275/69 103/276/69
f 102/277/70 98/278/70 100/279/70 104/280/70
f 106/281/71 105/282/71 107/283/71 108/284/71
f 111/285/72 109/286/72 110/287/72 112/288/72
f 109/289/73 105/290/73 106/291/73 110/292/73
f 108/293/74 107/294/74 111/295/74 112/296/74
f 107/297/75 105/298/75 109/299/75 111/300/75
f 110/301/76 106/302/76 108/303/76 112/304/76
f 114/305/77 113/306/77 115/307/77 116/308/77
f 119/309/78 117/310/78 118/311/78 120/312/78
f 117/313/79 113/314/79 114/315/79 118/316/79
f 116/317/80 115/318/80 119/319/80 120/320/80
f 115/321/81 113/322/81 117/323/81 119/324/81
f 118/325/82 114/326/82 116/327/82 120/328/82
f 125/329/83 121/330/83 122/331/83 126/332/83
f 124/333/84 123/334/84 127/335/84 128/336/84
f 123/337/85 121/338/85 125/339/85 127/340/85
f 126/341/86 122/342/86 124/343/86 128/344/86
f 133/345/87 129/346/87 130/347/87 134/348/87
f 132/349/88 131/350/88 135/351/88 136/352/88
f 131/353/89 129/354/89 133/355/89 135/356/89
f 134/357/90 130/358/90 132/359/90 136/360/90
